Coordinates
version=1
nRows=30
nColumns=19
inDegrees=yes

Units are S.I. units (second, meters, Newtons, ...)
If the header above contains a line with 'inDegrees', this indicates whether rotational values are in degrees (yes) or radians (no).

endheader
time	pelvis_tilt	pelvis_list	pelvis_rotation	pelvis_tx	pelvis_ty	pelvis_tz	hip_flexion_r	hip_adduction_r	hip_rotation_r	knee_angle_r	knee_angle_r_beta	ankle_angle_r	hip_flexion_l	hip_adduction_l	hip_rotation_l	knee_angle_l	knee_angle_l_beta	ankle_angle_l
     13.59333333	     -3.47178366	      7.10731694	      0.19089413	      2.17109850	      1.01680676	      1.02498333	     -9.79536071	    -13.32767504	    -11.07340958	     59.82536092	      1.04414952	    -11.42863853	     22.79414720	      8.99955711	    -11.58265985	     10.50880348	      0.18341322	      3.11418548
     13.60000000	     -3.25434934	      7.75471196	      0.51733395	      2.17047070	      1.01264290	      1.02401309	     -8.65464567	    -14.49580460	    -11.40579642	     63.39752784	      1.10649560	    -11.02478520	     22.78911383	      9.59355970	    -12.41432980	     12.72964251	      0.22217417	      3.12219613
     13.60666667	     -2.60259395	      8.54362568	      0.80397479	      2.16973884	      1.00881761	      1.02321008	     -7.94347963	    -15.77153131	    -11.64957813	     66.82285997	      1.16627892	    -10.52664344	     22.27884146	     10.28645552	    -13.18119685	     15.10625407	      0.26365387	      3.21923862
     13.61333333	     -2.86776570	      8.81356692	      1.00443952	      2.16841503	      1.00386092	      1.02258459	     -5.84420574	    -16.35062152	    -11.16424797	     70.39162725	      1.22856566	     -9.96346799	     23.13743709	     10.22144745	    -14.04148334	     18.44560477	      0.32193654	      3.79013634
     13.62000000	     -2.61846791	      9.19797506	      1.16588478	      2.16699872	      0.99945694	      1.02213001	     -4.26461052	    -16.97219541	    -10.63806802	     73.74294713	      1.28705723	     -9.31238505	     23.30558267	     10.28509634	    -14.65765889	     21.66493312	      0.37812442	      4.56714485
     13.62666667	     -2.31592813	      9.47867648	      1.25705420	      2.16525663	      0.99516906	      1.02191638	     -2.57425833	    -17.36329477	     -9.86482100	     76.97266316	      1.34342641	     -8.59301675	     23.38391163	     10.21958697	    -15.05517371	     24.91468138	      0.43484322	      5.65637854
     13.63333333	     -1.95875847	      9.67972742	      1.28428343	      2.16320344	      0.99111481	      1.02189421	     -0.78708582	    -17.55111950	     -8.88661637	     80.05043664	      1.39714369	     -7.84790679	     23.31081602	     10.09077345	    -15.23144838	     28.04459435	      0.48947051	      7.03695512
     13.64000000	     -1.29676403	      9.79912171	      1.23675283	      2.16084154	      0.98768875	      1.02208887	      0.77389691	    -17.51770212	     -7.79039999	     82.88989454	      1.44670158	     -7.08527410	     22.76969581	      9.92257674	    -15.19435000	     30.93166003	      0.53985931	      8.66952915
     13.64666667	     -1.02791174	      9.84374736	      1.21556140	      2.15825892	      0.98418332	      1.02230671	      2.91074324	    -17.30752018	     -6.55247818	     85.59836619	      1.49397332	     -6.38719487	     22.49323423	      9.76085604	    -14.94030820	     33.52887691	      0.58518930	     10.52722045
     13.65333333	     -0.46730406	      9.83819263	      1.12902389	      2.15544761	      0.98146750	      1.02268817	      4.78882042	    -16.93279884	     -5.28329709	     88.01667207	      1.53618072	     -5.69541524	     21.69224677	      9.60754030	    -14.57593566	     35.73093262	      0.62362242	     12.49173458
     13.66000000	      0.21825250	      9.82938090	      1.07017003	      2.15260873	      0.97940268	      1.02304256	      6.51910705	    -16.50114168	     -4.09481330	     90.12467573	      1.57297233	     -5.00030014	     20.49647607	      9.55410925	    -14.05637611	     37.45057523	      0.65363584	     14.49048938
     13.66666667	      0.75823713	      9.75730288	      1.05720039	      2.14980417	      0.97776969	      1.02337755	      8.41876180	    -15.93879927	     -2.95106734	     91.93958311	      1.60464844	     -4.44239495	     19.19441677	      9.51167639	    -13.43985681	     38.70974659	      0.67561253	     16.52608749
     13.67333333	      0.79084930	      9.43001489	      0.87616461	      2.14694144	      0.97617653	      1.02391066	     11.01330754	    -14.90652352	     -1.51578548	     93.52457601	      1.63231178	     -4.03194327	     18.28246695	      9.13619366	    -13.04884387	     39.68874716	      0.69269931	     18.33805654
     13.68000000	      0.93920127	      9.15154310	      0.85430931	      2.14447471	      0.97533015	      1.02414510	     13.29111178	    -14.03981479	     -0.47660508	     94.70190950	      1.65286013	     -3.59569218	     16.91413655	      8.94602811	    -12.45535308	     40.09778266	      0.69983833	     20.07608719
     13.68666667	      1.14080670	      8.87501377	      1.04814548	      2.14245889	      0.97522628	      1.02406545	     15.29128388	    -13.25588306	      0.19962125	     95.44825135	      1.66588625	     -3.20037194	     15.19423167	      8.88034757	    -11.58723628	     40.01059309	      0.69831659	     21.57535690
     13.69333333	      1.17733334	      8.47550666	      1.22258554	      2.14075416	      0.97550736	      1.02393521	     17.38758012	    -12.34256296	      0.79015644	     95.84953737	      1.67289001	     -2.84678691	     13.46657760	      8.67112681	    -10.77036851	     39.60861356	      0.69130072	     22.72876136
     13.70000000	      0.81203737	      7.87887074	      1.00231741	      2.13961042	      0.97588516	      1.02405266	     19.95551051	    -11.10198288	      1.66219449	     95.94078117	      1.67448252	     -2.59921905	     11.98941752	      8.11187268	    -10.58095668	     38.89865070	      0.67890953	     23.75033694
     13.70666667	      0.47821418	      7.27922524	      1.24387894	      2.13903667	      0.97689885	      1.02351750	     22.11325849	    -10.18270182	      1.80052634	     95.57728536	      1.66813832	     -2.27608007	     10.28762020	      7.72082138	     -9.78133006	     37.87549377	      0.66105207	     24.35212119
     13.71333333	      0.04571036	      6.59885430	      1.38385386	      2.13887514	      0.97830090	      1.02301876	     24.26296423	     -9.18867022	      1.90318001	     94.86952190	      1.65578552	     -2.02491829	      8.56944628	      7.22361274	     -9.08625624	     36.60579190	      0.63889159	     24.61688180
     13.72000000	     -0.43554880	      5.84249877	      1.50067503	      2.13922701	      0.98013948	      1.02237500	     26.28082147	     -8.24047637	      1.79972196	     93.79675670	      1.63706223	     -1.74820938	      6.79337551	      6.62846391	     -8.47844066	     35.12575691	      0.61306011	     24.46980930
     13.72666667	     -0.19425877	      5.10186895	      1.55270433	      2.14010318	      0.98318209	      1.02172319	     27.26373219	     -7.44328424	      1.45326014	     92.33580034	      1.61156373	     -1.25177495	      4.03006815	      6.02413806	     -7.95028656	     33.21622238	      0.57973245	     23.87245731
     13.73333333	     -0.50606022	      4.26399127	      1.72236713	      2.14137226	      0.98612551	      1.02091343	     28.65911831	     -6.64746169	      0.91453986	     90.49786854	      1.57948577	     -1.05153570	      1.92953469	      5.30992310	     -7.35337827	     31.39323606	      0.54791533	     22.84982596
     13.74000000	     -0.64457314	      3.41385152	      1.85024854	      2.14292268	      0.98948667	      1.02019113	     29.70547772	     -5.92417538	      0.21923848	     88.39026245	      1.54270111	     -0.67812118	     -0.39407183	      4.54456870	     -6.86232680	     29.43469028	      0.51373226	     21.39039205
     13.74666667	     -0.76400066	      2.51197904	      1.98626711	      2.14470021	      0.99314450	      1.01948603	     30.55483344	     -5.22071633	     -0.64278649	     85.96649444	      1.50039837	     -0.36215786	     -2.70982607	      3.68670939	     -6.46330586	     27.44880774	      0.47907207	     19.55654061
     13.75333333	     -0.83865386	      1.68340271	      2.06585217	      2.14672384	      0.99697812	      1.01896733	     31.20833763	     -4.59685750	     -1.52312426	     83.29363346	      1.45374815	      0.02544912	     -5.05907393	      2.87335815	     -6.21003996	     25.41306680	      0.44354169	     17.22131907
     13.76000000	     -0.92668092	      0.82668784	      2.15554581	      2.14886442	      1.00096570	      1.01853654	     31.71686442	     -3.96672693	     -2.51161652	     80.32916785	      1.40200846	      0.35525165	     -7.30553550	      1.99483110	     -6.06729933	     23.44625156	      0.40921429	     14.57096312
     13.76666667	     -1.99129855	      0.02483969	      2.23460031	      2.15099059	      1.00381286	      1.01837074	     33.23064604	     -3.39316144	     -3.47510851	     77.23857549	      1.34806745	      0.62263910	     -8.16061129	      1.12265537	     -6.12804021	     22.06185048	      0.38505193	     11.64104000
     13.77333333	     -1.36315186	     -0.65061005	      2.14969173	      2.15326269	      1.00874683	      1.01827406	     32.66547122	     -2.79709170	     -4.33945601	     73.73006151	      1.28683233	      0.87036140	    -11.22681513	      0.44279289	     -6.23766642	     19.77703446	      0.34517437	      8.34420684
     13.78000000	     -1.68594313	     -1.30782238	      2.17029644	      2.15542922	      1.01252381	      1.01832496	     33.04222620	     -2.25713558	     -5.27217912	     70.06117997	      1.22279827	      1.08046166	    -12.83869286	     -0.28858168	     -6.42188656	     18.23408184	      0.31824476	      4.93736643
     13.78666667	     -2.16178352	     -1.83786000	      2.05961967	      2.15749741	      1.01604460	      1.01867014	     33.49536087	     -1.69478259	     -5.97968815	     66.20032335	      1.15541361	      1.24246997	    -14.13812987	     -0.87949863	     -6.78005553	     16.89141691	      0.29481084	      1.42879957
